<svg width="20" height="20" viewBox="0 0 20 20" fill="none" xmlns="http://www.w3.org/2000/svg">
<path fill-rule="evenodd" clip-rule="evenodd" d="M17.795 6.031C17.7427 4.9985 17.2962 4.02545 16.5474 3.3126C15.7986 2.59975 14.8048 2.2015 13.771 2.2H6.242L6.032 2.205C4.99932 2.25702 4.02602 2.70349 3.31296 3.45228C2.5999 4.20106 2.20151 5.19501 2.2 6.229V13.758L2.205 13.968C2.25702 15.0007 2.70349 15.974 3.45228 16.687C4.20106 17.4001 5.19501 17.7985 6.229 17.8H13.758L13.968 17.795C15.0007 17.743 15.974 17.2965 16.687 16.5477C17.4001 15.7989 17.7985 14.805 17.8 13.771V6.242L17.795 6.032V6.031ZM18.995 5.99C18.932 4.64622 18.3542 3.37825 17.3813 2.44914C16.4085 1.52003 15.1153 1.0011 13.77 1H6.23L5.99 1.005C4.64622 1.06796 3.37825 1.64581 2.44914 2.61868C1.52003 3.59154 1.0011 4.88474 1 6.23V13.772L1.005 14.012C1.06846 15.3554 1.64653 16.6229 2.61934 17.5516C3.59215 18.4803 4.88507 18.9989 6.23 19H13.772L14.012 18.995C15.3554 18.9315 16.6229 18.3535 17.5516 17.3807C18.4803 16.4078 18.9989 15.1149 19 13.77V6.23L18.995 5.99ZM10 6.6C9.09859 6.60106 8.2344 6.95961 7.59701 7.59701C6.95961 8.2344 6.60106 9.09859 6.6 10C6.6 11.874 8.126 13.4 10 13.4C11.874 13.4 13.4 11.874 13.4 10C13.4 8.126 11.874 6.6 10 6.6ZM5.4 10C5.4 7.463 7.463 5.4 10 5.4C12.537 5.4 14.6 7.463 14.6 10C14.6 12.537 12.537 14.6 10 14.6C8.78041 14.5987 7.61115 14.1136 6.74877 13.2512C5.88639 12.3888 5.40132 11.2196 5.4 10ZM15.5 4.75C15.5 4.94891 15.421 5.13968 15.2803 5.28033C15.1397 5.42098 14.9489 5.5 14.75 5.5C14.5511 5.5 14.3603 5.42098 14.2197 5.28033C14.079 5.13968 14 4.94891 14 4.75C14 4.55109 14.079 4.36032 14.2197 4.21967C14.3603 4.07902 14.5511 4 14.75 4C14.9489 4 15.1397 4.07902 15.2803 4.21967C15.421 4.36032 15.5 4.55109 15.5 4.75Z" fill="#FAFAFA"/>
</svg>
